<?xml version="1.0" standalone="no"?>
<!DOCTYPE svg PUBLIC "-//W3C//DTD SVG 20010904//EN"
 "http://www.w3.org/TR/2001/REC-SVG-20010904/DTD/svg10.dtd">
<svg version="1.0" xmlns="http://www.w3.org/2000/svg"
 width="700.000000pt" height="700.000000pt" viewBox="0 0 700.000000 700.000000"
 preserveAspectRatio="xMidYMid meet">
<metadata>
Created by potrace 1.11, written by Peter Selinger 2001-2013
</metadata>
<g transform="translate(0.000000,700.000000) scale(0.100000,-0.100000)"
fill="#000000" stroke="none">
<path d="M2058 5685 c-2 -2 -39 -6 -84 -9 -44 -4 -90 -8 -101 -10 -11 -3 -36
-7 -54 -10 -418 -67 -837 -280 -1153 -585 -235 -228 -414 -502 -529 -811 -37
-101 -91 -295 -103 -370 -25 -170 -31 -245 -29 -415 2 -170 9 -235 41 -423 7
-43 61 -240 73 -267 5 -11 19 -47 32 -80 197 -525 644 -987 1170 -1212 148
-63 349 -126 444 -139 17 -3 46 -7 65 -11 54 -9 60 -10 145 -19 195 -20 496
-2 695 43 269 60 552 187 782 351 l48 34 62 -44 c170 -120 357 -214 559 -282
90 -29 253 -71 324 -82 28 -4 57 -9 65 -10 115 -24 483 -23 625 1 227 39 420
99 610 189 97 46 264 140 300 168 6 4 53 40 105 80 168 127 359 332 487 523
186 276 318 646 352 990 11 115 6 408 -9 505 -6 41 -13 87 -15 101 -14 101
-87 348 -132 449 -78 172 -173 345 -235 425 -5 6 -36 46 -70 90 -158 204 -389
404 -618 536 -153 88 -266 139 -425 191 -78 25 -249 67 -300 74 -22 3 -49 7
-60 9 -90 19 -392 25 -525 11 -266 -27 -492 -92 -740 -210 -41 -20 -89 -44
-105 -54 -108 -63 -136 -80 -187 -117 l-57 -41 22 -23 c12 -13 -5 -3 -38 22
-103 77 -255 168 -374 224 -188 89 -452 169 -621 188 -30 3 -68 8 -85 11 -30
6 -352 13 -357 9z"/>
</g>
</svg>
