<svg width="0" height="0" class="hidden">
  <symbol fill="none" xmlns="http://www.w3.org/2000/svg" viewBox="0 0 191 26" id="mediamarkt">
    <path fill-rule="evenodd" clip-rule="evenodd" d="M162.098 8.833a.5.5 0 00-.383-.179h-2.596a.5.5 0 00-.49.396l-.202.98c-.576-.516-1.151-.846-1.975-1.165l-.258-.113c-.032-.011-.063-.024-.096-.03-2.818-.617-5.651.23-7.97 2.384a10.831 10.831 0 00-2.618 3.621L148.92.911a.365.365 0 00-.067-.32.375.375 0 00-.295-.143h-3.16c-.11 0-.21.045-.281.127l-13.75 15.482c.482-2.32 3.184-15.159 3.184-15.159 0-.025.007-.053.007-.077a.376.376 0 00-.374-.373h-3.49a.382.382 0 00-.285.127l-17.438 20.09c-.293-2.925-1.687-6.11-1.687-6.11-2.337-4.777-7.537-6.324-10.486-3.585l-.02.005-.463.335c2.139-3.406 7.567-3.254 11.06.756 0 0 1.553 1.862 2.654 4.632a12.88 12.88 0 00.529-3.028c-1.82-2.455-3.87-3.897-3.87-3.897-4.414-2.97-9.697-1.716-10.878 2.127l-.016.016-.228.52c.144-4.02 4.918-6.592 9.952-4.863 0 0 2.37.868 4.762 2.79a12.608 12.608 0 00-1.224-3.335c-2.79-1.205-5.264-1.429-5.264-1.429-5.313-.368-9.257 3.348-8.353 7.266l-.007.021.06.567c-1.888-3.554.956-8.16 6.18-9.177 0 0 2.427-.42 5.41.023a12.778 12.778 0 00-2.578-2.085c-2.991.35-5.223 1.383-5.223 1.383-4.783 2.328-6.337 7.517-3.59 10.462l.003.017.337.463c-3.415-2.136-3.26-7.547.756-11.033 0 0 1.877-1.56 4.67-2.666a12.662 12.662 0 00-3.551-.527c-2.335 1.772-3.697 3.697-3.697 3.697-2.977 4.405-1.72 9.673 2.131 10.853l.015.012.523.233c-4.027-.144-6.606-4.908-4.874-9.93 0 0 .798-2.166 2.558-4.443a12.913 12.913 0 00-2.855 1.12c-1.137 2.705-1.35 5.06-1.35 5.06-.37 5.3 3.358 9.235 7.286 8.336l.018.005.57-.063c-3.562 1.886-8.183-.952-9.197-6.167 0 0-.407-2.33 0-5.233a12.84 12.84 0 00-2.207 2.752c.381 2.86 1.355 4.962 1.355 4.962 2.335 4.775 7.535 6.324 10.484 3.583l.022-.004.462-.334c-2.138 3.405-7.567 3.253-11.058-.757 0 0-1.79-2.231-2.726-4.83a.502.502 0 00-.112-.332.51.51 0 00-.388-.179h-2.593a.503.503 0 00-.493.396s-.199.302-.29.896c-.576-.514-1.259-.812-1.882-1.081l-.264-.113c-.03-.011-.063-.024-.093-.03-2.818-.617-5.65.23-7.97 2.384-1.371 1.259-2.355 2.752-2.914 4.365l-.048.106 1.103-6.34a.501.501 0 00-.496-.583l-2.768.004a.502.502 0 00-.493.413l-2.86 15.556a.516.516 0 00.11.412.509.509 0 00.385.176l2.917.007a.5.5 0 00.495-.416l1.102-6.33c.012.04.022.066.022.066-.01.629.042 1.267.16 1.904.429 2.379 2.543 4.598 4.822 5.05 1.988.359 4.114-.144 6.212-1.436-.041.226-.107.567-.107.567a.5.5 0 00.107.412.5.5 0 00.388.176l2.574.007a.5.5 0 00.494-.408l2.266-12.243c1.695 2.008 3.912 3.723 3.912 3.723 4.413 2.972 9.694 1.717 10.875-2.124l.018-.017.229-.522c-.144 4.019-4.92 6.595-9.954 4.863 0 0-2.171-.796-4.458-2.552.019.083.036.169.057.254a12.851 12.851 0 001.174 2.975c2.66 1.093 4.955 1.3 4.955 1.3 5.31.37 9.255-3.349 8.353-7.268l.007-.02-.063-.569c1.89 3.554-.955 8.167-6.182 9.177 0 0-2.283.4-5.147.013a12.88 12.88 0 002.311 1.92c2.968-.359 5.166-1.379 5.166-1.379 4.785-2.327 6.341-7.517 3.594-10.459l-.006-.022-.336-.46c3.416 2.135 3.263 7.546-.754 11.033 0 0-1.916 1.587-4.748 2.695.78.263 1.584.449 2.397.556h1.158c2.379-1.79 3.767-3.756 3.767-3.756 2.98-4.405 1.724-9.675-2.13-10.852l-.015-.016-.521-.23c4.028.145 6.608 4.908 4.875 9.932 0 0-.866 2.35-2.785 4.733.154-.034.302-.066.455-.106a12.89 12.89 0 002.741-1.045c1.19-2.763 1.41-5.205 1.41-5.205.373-5.296-3.356-9.234-7.287-8.333l-.016-.004-.569.06c3.56-1.884 8.184.954 9.2 6.169 0 0 .586 2.394.147 5.23a6.323 6.323 0 01-.588 1.637c-.1.176-.225.384-.377.626l.004-.007c-.002.007-.008.012-.012.02-.004.007-.004.008-.004.014a.365.365 0 00-.02.34.361.361 0 00.341.216h1.619c.852-.004 1.583-.009 2.556.025a.392.392 0 00.301-.133l14.08-16.794c-.594 3.064-2.279 10.942-3.485 16.473-.003.027-.006.054-.006.08 0 .085.028.168.08.234.073.09.18.14.298.14l2.848-.025a.364.364 0 00.281-.13s12.629-14.737 14.245-16.62c-.673 3.076-2.517 10.846-3.831 16.313a.26.26 0 00-.014.087.37.37 0 00.082.231.375.375 0 00.296.144h3.368a.376.376 0 00.366-.287l1.458-5.901.203-.83c.007.237.01.424.01.424a9.85 9.85 0 00.163 1.904c.425 2.379 2.544 4.598 4.819 5.05 1.987.359 4.116-.144 6.213-1.436l-.107.567a.505.505 0 00.105.412c.098.113.24.176.386.176l2.576.007c.245 0 .451-.17.495-.408l2.326-12.327.557-3.322a.486.486 0 00-.117-.332h.001zM.37 24.896v-.31a.382.382 0 01.06-.09L21.234.575a.382.382 0 01.285-.128h3.358c.11 0 .216.051.29.138a.388.388 0 01.084.235.417.417 0 01-.01.077s-2.605 12.838-3.09 15.16L35.903.575a.368.368 0 01.278-.127h3.162a.368.368 0 01.363.463l-3.318 13.44c.028-.05.051-.099.077-.145 1.579-3.064 4.58-5.218 7.827-5.614.01-.003.023-.003.036-.003 2.937-.148 5.204.96 6.563 3.2l.022.036c.488.978.852 2.293.917 3.646.555-1.613 1.54-3.106 2.91-4.365 2.32-2.154 5.15-3.001 7.971-2.384a.67.67 0 01.093.03l.262.113c.626.269 1.307.567 1.883 1.081.305-1.431 1.2-5.678 1.2-5.678a.503.503 0 01.49-.396h2.595c.15 0 .29.067.386.178a.511.511 0 01.11.412l-3.785 20.352a.5.5 0 01-.493.408l-2.575-.007a.507.507 0 01-.389-.176.501.501 0 01-.106-.412s.065-.341.106-.567c-2.098 1.292-4.221 1.795-6.211 1.435-2.277-.451-4.394-2.67-4.822-5.049a10.091 10.091 0 01-.162-1.904.508.508 0 01-.336.13l-11.95.005a.641.641 0 00-.02.145c0 .182.064.42.146.69l.051.175c.567 1.39 1.928 2.262 3.472 2.225 1.535-.035 2.957-.768 4.221-2.177a.492.492 0 01.371-.167h2.664c.172 0 .334.088.423.234a.502.502 0 01.033.482c-1.513 3.172-4.904 5.302-8.463 5.302-2.477-.096-4.555-1.298-5.712-3.308-.576-1.071-.849-2.4-.833-3.762l-1.563 6.333a.378.378 0 01-.367.287h-3.37a.367.367 0 01-.292-.144.36.36 0 01-.084-.23c0-.032.005-.059.01-.088 1.317-5.467 3.162-13.237 3.832-16.312l-14.243 16.62a.365.365 0 01-.281.129l-2.847.025a.375.375 0 01-.378-.375c0-.025 0-.052.007-.079 1.205-5.531 2.89-13.41 3.483-16.473L5.187 25.003a.388.388 0 01-.3.133 57.515 57.515 0 00-2.556-.025H.71a.368.368 0 01-.34-.215zm157.097-7.564c-.583 2.032-2.51 3.967-4.395 4.423-1.442.19-2.498.055-3.23-.42-.777-.532-1.167-1.455-1.468-2.287a5.414 5.414 0 01-.08-.891c0-1.851.994-3.635 2.822-5.002 1.047-.732 2.476-1.01 3.726-.724.705.163 1.673.581 2.275 1.67.335.591.516 1.34.516 2.07 0 .404-.056.8-.166 1.161zM40.131 14.997l7.743-.073c-.06-.553-.352-1.07-.964-1.682-.675-.577-1.6-.848-2.915-.855-1.424.198-3.087 1.132-3.864 2.61zm23.95 2.335c.11-.361.163-.757.163-1.16 0-.731-.178-1.48-.514-2.07-.607-1.09-1.57-1.508-2.278-1.67a4.822 4.822 0 00-3.728.723c-1.823 1.367-2.818 3.15-2.818 5.002 0 .293.028.593.08.891.301.832.69 1.755 1.466 2.287.736.475 1.794.61 3.231.42 1.884-.456 3.811-2.391 4.398-4.423zm6.308-13.064l-.605 3.272a.514.514 0 00.108.417.507.507 0 00.388.178h2.92a.5.5 0 00.493-.41l.549-3.243a.521.521 0 00-.109-.41.506.506 0 00-.38-.181l-2.871-.025a.5.5 0 00-.493.402zm14.233 13.064c-.585 2.032-2.514 3.967-4.396 4.423-1.44.19-2.496.055-3.232-.42-.776-.532-1.164-1.455-1.465-2.287a5.205 5.205 0 01-.08-.891c0-1.851.993-3.635 2.82-5.002a4.824 4.824 0 013.727-.724c.706.163 1.671.581 2.275 1.67.337.591.517 1.34.517 2.07 0 .404-.057.8-.166 1.161zm95.976 6.441l-4.81-7.704c.39-.459 4.483-5.434 5.314-6.409l-.368 1.929a.5.5 0 00.494.592h1.275c-.145.88-1.479 8.987-1.905 11.592zM166.596 9.605l.057-.36a.501.501 0 00-.105-.41.507.507 0 00-.384-.18h-2.598a.499.499 0 00-.496.404l-.073.392-2.776 15.134a.508.508 0 00.515.587l1.282-.019h1.205c.24 0 .44-.167.487-.398l1.905-9.392c.629-2.38 2.21-3.089 3.608-3.295.075-.01.357-.006.417-.044-.958 5.694-2.092 12.436-2.113 12.55a.5.5 0 00.492.579h2.797c.219 0 .414-.14.476-.35.09-.274.759-4.144 1.16-6.469 1.036 1.567 4.345 6.59 4.345 6.59.093.14.25.224.417.224l3.344.005a.563.563 0 00.173-.032c.071.032.15.054.228.051l2.823-.019a.497.497 0 00.489-.41l2.18-12.556 3.24-.005c.243 0 .45-.175.493-.413l.436-2.534a.389.389 0 00.009-.085.506.506 0 00-.116-.318.502.502 0 00-.385-.177h-3.193c.156-.896.724-4.2.724-4.2a.485.485 0 00-.11-.405.49.49 0 00-.381-.177h-2.807a.5.5 0 00-.492.412s-.624 3.693-.74 4.37c-.254.008-.515.013-.515.013l-.438.003-.465-.008a.499.499 0 00-.43.23.495.495 0 00-.412-.225l-2.569-.005h-.751a.512.512 0 00-.369.16s-2.584 2.954-3.956 4.437c.401-2.35 1.508-8.797 1.508-8.797a.485.485 0 00-.113-.405.487.487 0 00-.38-.179l-2.795-.006a.496.496 0 00-.496.411c-.065.385-.355 2.1-.744 4.387l-.013-.02a.49.49 0 00-.393-.17c-1.19.035-2.265.521-3.202 1.124z" fill="#222"></path>
  </symbol>
  <symbol fill="none" xmlns="http://www.w3.org/2000/svg" viewBox="0 0 192 70" id="rtv">
    <path fill-rule="evenodd" clip-rule="evenodd" d="M17.747 27.698v-6.217h21.86l5.969 16.631 6.045-16.631h6.667l-9.689 26.812H42.63l-7.519-20.595h-5.659v20.595h-6.433V27.698h-5.272z" fill="#222"></path>
    <path fill-rule="evenodd" clip-rule="evenodd" d="M6.972 33.76v-6.916c7.21-.467 7.055 7.304 0 6.916zm5.815 14.533h7.364L13.949 37.57c7.674-2.643 5.581-16.244-2.945-16.088H.228v26.812h6.744v-9.947l5.815 9.947zM134.564 21.48h7.597l7.209 26.813h-5.35l-1.24-4.74h-8.99l-1.242 4.74h-5.193l7.21-26.812h-.001zm6.899 17.176h-6.356l3.178-11.89 3.178 11.89z" fill="#222"></path>
    <path fill-rule="evenodd" clip-rule="evenodd" d="M159.292 38.967v-5.75h11.86v9.325c-1.86 2.41-3.1 4.275-5.582 5.441-1.627.776-4.263 1.398-6.666 1.398-2.945 0-5.349-.544-7.21-1.631-1.859-1.167-3.021-2.643-4.03-4.82-1.007-2.253-1.24-4.818-1.24-7.694 0-3.03.388-5.75 1.55-7.926 1.085-2.254 2.714-3.886 4.884-5.053 1.705-.932 3.488-1.32 6.356-1.32 2.79 0 4.806.233 6.202.777 1.395.543 2.48 1.399 3.41 2.565.853 1.166 1.55 2.642 2.016 4.43l-6.512 1.476c-.31-1.088-.775-1.865-1.55-2.41-.698-.542-1.628-.931-2.713-1.087-2.247-.311-4.03.932-5.038 2.176-1.008 1.32-1.474 3.341-1.474 6.218 0 2.953.466 5.517 1.474 6.838 1.008 1.245 2.48 1.944 4.263 1.944.853 0 1.705-.156 2.48-.468.775-.231 1.629-.698 2.636-1.398v-3.03h-5.116v-.001zm21.395-11.424h-3.489v14.766h3.489c6.51 0 6.665-14.766 0-14.766zm-1.008-6.062h-8.527v26.89h8.527c15.969 0 16.279-26.89 0-26.89z" fill="#222"></path>
    <mask id="a" maskUnits="userSpaceOnUse" x="0" y="0" width="192" height="70">
      <path d="M0 70h192V0H0v70z" fill="#fff"></path>
    </mask>
    <g mask="url(#a)" fill-rule="evenodd" clip-rule="evenodd">
      <path d="M52.397 48.294h78.679V21.481H52.397v26.813z" fill="#fff"></path>
      <path d="M51.622 48.293h80.229V21.48H51.62v26.813h.002zm1.55-1.4h77.206V22.958H53.173v23.937l-.001-.002z" fill="#222"></path>
      <path d="M70.846 41.766H57.358V27.931h13.101v2.72h-9.457v2.798h8.758v1.943h-8.758v4.042h9.844v2.332zm36.587 0h-4.109l-.076-3.731c0-1.943-2.403-1.866-3.954-1.866h-2.558v5.597h-4.263V27.93h9.612c6.279 0 7.752 5.13 3.1 6.996 1.163.387 2.17 1.554 2.17 3.03l.078 3.809v.001zM96.581 34.07h4.031c1.086 0 1.938-.156 2.404-.389.464-.31.774-.777.774-1.399 0-1.165-1.008-1.787-2.945-1.787h-4.264v3.575zm21.937-6.372c1.24 0 2.403.156 3.411.544 1.085.312 2.015.777 2.79 1.4.776.62 1.319 1.398 1.783 2.253.388.932.62 1.865.62 2.954 0 1.01-.154 2.02-.62 2.875-.387.856-1.007 1.632-1.783 2.254-.775.621-1.705 1.165-2.712 1.477-1.086.31-2.248.543-3.489.543-1.24 0-2.48-.232-3.488-.543a7.028 7.028 0 01-2.712-1.477c-.776-.622-1.397-1.322-1.783-2.254-.466-.855-.699-1.788-.699-2.875 0-1.089.233-2.1.699-2.954.386-.855 1.007-1.632 1.783-2.253.775-.623 1.705-1.088 2.712-1.4 1.086-.388 2.248-.544 3.488-.544zm0 11.813c.698 0 1.396-.077 2.093-.31a5.607 5.607 0 001.628-.933c.465-.388.775-.855 1.085-1.476a5.096 5.096 0 00.388-1.943c0-.778-.155-1.4-.388-2.022-.31-.544-.62-1.01-1.085-1.398a5.54 5.54 0 00-1.628-.933c-.697-.233-1.318-.311-2.093-.311-.698 0-1.395.078-2.092.31a5.587 5.587 0 00-1.628.934c-.465.388-.853.854-1.086 1.476a4.822 4.822 0 00-.387 1.944c0 .699.155 1.399.387 1.943.233.621.62 1.088 1.086 1.476.465.388 1.007.7 1.628.933.62.233 1.317.31 2.092.31zM74.8 27.931h3.488v9.793c.154 2.72 6.976 2.642 6.82 0V27.93h3.799l-.078 10.026c.078 5.13-13.953 5.13-14.03 0V27.931h.001zm51.16-.077a1.921 1.921 0 01-1.938-1.944c0-1.087.852-1.942 1.938-1.942 1.086 0 1.938.855 1.938 1.942a1.921 1.921 0 01-1.938 1.944zm0-.311c.93 0 1.628-.777 1.628-1.633 0-.932-.698-1.71-1.628-1.71-.93 0-1.628.778-1.628 1.71 0 .856.698 1.633 1.628 1.633zm-.31-1.866h.698c0-.077.077-.077.077-.077.078-.077.078-.155.078-.155 0-.078 0-.156-.078-.234 0 0-.077-.077-.155-.077h-.62v.543zm-.465 1.245v-2.1h1.395l.233.234c.077.078.077.233.077.31 0 .157 0 .311-.077.39-.156.076-.233.154-.465.232.077 0 .155.078.232.156.077.078.155.156.233.31l.31.468h-.543l-.31-.468c-.077-.154-.155-.31-.232-.31 0-.078-.078-.078-.078-.078-.078-.078-.155-.078-.233-.078h-.077v.934h-.465z" fill="#222"></path>
    </g>
  </symbol>
  <symbol fill="none" xmlns="http://www.w3.org/2000/svg" viewBox="0 0 133 59" id="zalando">
    <path fill-rule="evenodd" clip-rule="evenodd" d="M40.344 23.238H28.493a.683.683 0 01-.695-.7v-1.46c-.008-.355.105-.516.323-.788l9.433-11.055H28.31a.685.685 0 01-.694-.7V7.502c.001-.4.3-.699.694-.7h11.972a.684.684 0 01.695.7V8.99c.006.268-.085.496-.299.737l-9.457 11.076h9.122a.685.685 0 01.695.701v1.033c0 .4-.3.701-.695.701h.001zm23.361.304h.003c.848-.017 1.475-.187 1.721-.464.087-.1.13-.213.118-.324-.006-.093-.006-.093-.239-1.193l-.005-.027c-.053-.287-.254-.418-.423-.418l-.022.001s-.214-.01-.424-.01h-.003c-.605-.018-1.105-.108-1.116-1V1.437c0-.312-.186-.629-.544-.639L62.666.8l-1.655.426c-.282.03-.575.232-.563.607v18.336c.003 2.173 1.16 3.37 3.257 3.375zm33.454-.304H95.68a.686.686 0 01-.696-.7v-11.24c-.025-1.9-.588-2.43-2.62-2.46-2.3 0-4.624.582-5.39.793v12.906c-.002.406-.28.701-.665.701h-1.508a.684.684 0 01-.694-.7V9.931c-.022-1.167.087-1.974 1.733-2.51 1.577-.55 4.593-1.015 6.587-1.016 3.796.005 5.42 1.387 5.424 4.618v11.513c0 .4-.3.701-.693.701h.001zM111.998 9.3a16.26 16.26 0 00-3.824-.49c-3.182.03-4.518.9-4.55 6.225.036 5.847 1.762 6.163 4.58 6.193v.124-.124a14.91 14.91 0 003.792-.516l.002-11.412zm.776 13.72l-.175.044c-.94.24-2.227.57-4.485.57h-.003c-6.217-.01-7.439-3.173-7.445-8.63.009-6.26 1.977-8.59 7.262-8.598 1.866 0 3.152.243 4.074.468l-.006-5.04c-.007-.224.092-.513.61-.613l1.652-.424h.09c.381.01.514.35.515.638v18.947c.025 1.194-.115 2.22-2.089 2.637zm12.055-1.82c-4.073-.019-4.277-2.127-4.306-6.165.029-4.059.232-6.177 4.306-6.196 4.076.02 4.28 2.137 4.308 6.193-.029 4.04-.232 6.15-4.308 6.166v.001zm0-14.794c-6.717.01-7.287 4.457-7.293 8.63.006 4.153.576 8.59 7.293 8.597h.002c6.711-.009 7.284-4.43 7.294-8.598-.008-4.36-.577-8.62-7.296-8.63v.001zm-46.56 8.716c-.674.008-3.937.06-5.239.341l-.1.023c-1.46.33-2.615.587-2.628 2.768.003 2.742 2.085 2.988 4.217 3.006l.002.123v-.123c1.336 0 2.595-.192 3.747-.567v-5.57h.001zm2.881-4.006v8.717c.03 2.17-.524 2.86-2.688 3.367-.949.198-2.401.431-3.974.433-2.32-.006-7.142-.015-7.144-5.258-.016-4.129 2.446-4.847 5.419-5.307 1.949-.315 3.93-.362 4.937-.362.272 0 .45.002.553.005v-1.474c-.01-.984-.014-1.58-.929-1.928-.56-.238-1.401-.349-2.648-.349-2.057 0-3.9.466-5.118.774l-.466.11a.918.918 0 01-.174.03.559.559 0 01-.537-.415l-.007-.026-.276-1.404v-.07c.004-.333.24-.527.462-.597.984-.37 3.582-.955 6.38-.956 2.046.001 3.522.27 4.516.82 1.7.905 1.697 2.56 1.694 3.89zm-26.996 9.577c-1.152.375-2.412.567-3.748.567v.123l-.001-.123c-2.132-.018-4.214-.264-4.217-3.006.014-2.18 1.168-2.44 2.629-2.768l.102-.023c1.299-.28 4.562-.333 5.235-.34v5.57zm1.187-13.468c-.993-.55-2.469-.818-4.514-.82-2.798.002-5.396.587-6.379.957-.223.07-.46.264-.464.596l.001.071.275 1.404.007.026a.558.558 0 00.537.414h.001a.945.945 0 00.174-.028l.465-.11c1.22-.31 3.06-.775 5.118-.775 1.248 0 2.087.111 2.65.35.913.348.917.943.929 1.927v1.474a21.619 21.619 0 00-.553-.005c-1.008 0-2.99.047-4.938.362-2.974.46-5.434 1.178-5.42 5.307.003 5.243 4.826 5.252 7.144 5.258 1.574-.002 3.026-.235 3.974-.433 2.164-.507 2.716-1.198 2.687-3.367v-8.717c.003-1.33.008-2.985-1.694-3.89zm61.162 34.746c-.03-1.13-.093-2.226-.372-3.324-.499-1.945-1.65-2.539-3.982-2.539-2.393 0-3.513.628-4.011 2.54-.28 1.066-.311 2.224-.341 3.354l8.706-.03zm2.954.22v1.535c0 .22-.216.47-.435.47h-11.195c0 1.662.341 2.601 1.056 3.385.873 1.005 2.302 1.35 4.355 1.35 1.928 0 3.172-.41 4.51-.786.063-.03.125-.03.187-.03.156 0 .248.094.34.313l.343 1.285c.032.032.032.095.032.126 0 .188-.125.315-.342.377-1.215.5-3.266.94-5.412.94-6.095 0-8.055-2.759-8.055-8.62 0-5.425 1.214-8.654 7.34-8.654 3.234 0 5.13.973 6.187 2.665.873 1.443 1.089 3.386 1.089 5.643zm-20.56 6.205s-1.741.565-3.885.565c-3.017 0-4.665-.628-4.665-6.427 0-5.392 1.4-6.427 4.633-6.427a16.7 16.7 0 013.918.501v11.788zm2.864 3.424V37.08c0-1.16-.093-2.068-2.022-2.54-1.12-.283-2.77-.658-4.976-.658-5.598 0-7.4 2.477-7.4 8.684 0 5.643 1.305 8.59 7.308 8.59 2.239 0 3.33-.29 4.327-.544l-.11.15v2.42c-.086 1.91-.967 3.4-4.318 3.4-2.48 0-3.935-.702-4.631-2.339-.1-.144-.273-.194-.473-.112l-1.494.6c-.241.096-.304.291-.22.51l-.006.006c.79 2.361 2.833 3.617 6.824 3.617 6.19 0 7.193-3.223 7.193-6.513v-.53h-.002zm-17.48-13.36v11.82c0 .28-.157.467-.466.467h-1.927c-.311 0-.5-.188-.5-.468V38.803c0-2.005-.743-2.695-2.764-2.695-2.645 0-5.351.784-5.351.784V50.28c0 .28-.155.468-.466.468h-1.93c-.31 0-.497-.188-.497-.468V37.143c0-1.224.188-1.756 1.805-2.288 1.616-.533 4.6-.973 6.593-.973 3.732 0 5.504 1.13 5.504 4.578h-.001zm-17.473-4.58h-.123l-1.993.472c-.278.03-.433.156-.433.47l.03 10.126c0 2.193-.373 4.013-4.075 4.013-3.11 0-4.074-1.225-4.074-3.95V34.323c0-.22-.091-.44-.34-.44h-.094l-2.022.44c-.25.062-.436.187-.436.47v9.97c0 4.2 1.585 6.395 6.966 6.395 6.19 0 6.935-3.136 6.935-6.428V34.322c0-.25-.094-.44-.341-.44v-.002zm-19.37 8.654c0-3.95-.186-6.427-4.415-6.427-4.2 0-4.385 2.477-4.385 6.427 0 3.92.186 6.396 4.385 6.396 4.229 0 4.415-2.477 4.415-6.396zm2.987 0c0 4.732-.778 8.622-7.402 8.622-6.593 0-7.401-3.89-7.401-8.622 0-4.766.808-8.653 7.4-8.653 6.625 0 7.403 3.887 7.403 8.653zm-16.56 6.113c-.03 0-.061.031-.121.031-.188.033-.655.126-1.09.126-.622 0-1.37-.188-1.37-1.318V28.72c0-.25-.091-.437-.34-.437h-.094l-2.021.468c-.28.034-.435.16-.435.44v18.422c0 2.352 1.305 3.45 3.388 3.45 1.246 0 2.117-.283 2.365-.408.062 0 .248-.095.248-.345v-.094l-.28-1.285c-.03-.22-.125-.284-.25-.284zM19.324 12.05l-.003.001-.192-.213c-2.794-3.089-8.59-6.825-15.15-6.825-2.055 0-3.115 5.637-3.023 10.864H.95c.11 4.617 1.14 9.043 3.185 9.043 7.84 0 16.77-7.324 16.77-9.949 0-.657-.677-1.924-1.58-2.92" fill="#222"></path>
  </symbol>
  <symbol fill="none" xmlns="http://www.w3.org/2000/svg" viewBox="0 0 188 44" id="aliexspress">
    <path fill-rule="evenodd" clip-rule="evenodd" d="M47.237 32.715V3.767h16.989v3.629H50.755v8.9h12.098v3.63H50.755v9.073H65.17v3.629H47.237v.087zm35.78 0l-5.835-7.69-5.835 7.69H67.23l7.979-10.283-8.409-10.63h4.634l5.748 7.952 5.835-7.951h4.547l-7.979 10.629 7.551 10.283h-4.119zm9.782-3.111v14.258h-3.518V22.518c0-5.444 4.118-11.233 10.554-11.233 6.52 0 11.411 4.148 11.411 10.974 0 6.654-4.976 11.234-10.639 11.234-2.746 0-6.435-1.21-7.808-3.89zm14.758-7.345c0-4.666-3.003-7.43-8.323-7.172-2.574.087-6.52 1.987-6.178 8.642.086 2.16 2.317 6.22 7.208 6.22 4.204 0 7.293-2.42 7.293-7.69zm6.693 10.456V11.803h3.518v2.247c1.716-1.988 4.375-2.68 7.207-2.68v3.804c-.429-.087-4.634-.606-7.207 4.925v12.703h-3.518v-.087zm11.669-10.455c0-6.05 4.29-10.975 10.21-10.975 7.38 0 10.125 4.926 10.125 11.233v1.729H129.78c.257 3.975 3.775 6.048 7.036 5.962 2.402-.086 4.033-.777 5.75-2.505l2.316 2.42c-2.145 2.073-4.891 3.455-8.237 3.455-6.264-.086-10.726-4.753-10.726-11.32zm9.953-7.431c-3.346 0-5.92 2.936-6.092 6.135h12.785c0-3.112-2.23-6.136-6.693-6.136zm12.185 14.948l2.573-2.333c-.085 0 1.288 1.383 1.46 1.469.6.519 1.2.864 1.973 1.037 2.23.605 6.263.432 6.607-2.68.171-1.727-1.116-2.678-2.574-3.283-1.888-.69-3.948-.95-5.835-1.814-2.146-.95-3.517-2.592-3.517-5.011 0-6.31 8.922-7.346 12.955-4.408.172.173 2.145 1.987 2.06 1.987l-2.575 2.075c-1.286-1.556-2.488-2.334-5.233-2.334-1.373 0-3.261.605-3.604 2.074-.515 2.074 1.801 2.852 3.346 3.284 2.06.518 4.29.864 6.092 1.987 2.489 1.556 3.09 4.925 2.145 7.518-1.03 2.852-4.119 3.975-6.864 4.06-3.26.174-6.092-.863-8.409-3.195-.172 0-.6-.433-.6-.433zm18.104 0l2.575-2.333c-.086 0 1.286 1.383 1.458 1.469.6.519 1.202.864 1.973 1.037 2.23.605 6.265.432 6.608-2.68.17-1.727-1.116-2.678-2.575-3.283-1.888-.69-3.947-.95-5.834-1.814-2.145-.95-3.518-2.592-3.518-5.011 0-6.31 8.924-7.346 12.956-4.408.172.173 2.145 1.987 2.06 1.987l-2.574 2.075c-1.288-1.556-2.49-2.334-5.235-2.334-1.373 0-3.26.605-3.604 2.074-.514 2.074 1.802 2.852 3.346 3.284 2.06.518 4.292.864 6.093 1.987 2.488 1.556 3.09 4.925 2.145 7.518-1.03 2.852-4.118 3.975-6.865 4.06-3.26.174-6.091-.863-8.408-3.195-.172 0-.6-.433-.6-.433h-.001zm16.732-17.974V9.556h-.772v-.432h2.059v.432h-.772v2.247h-.515zm3.861 0V9.73l-.772 2.073h-.172l-.772-2.073v2.073h-.429v-2.68h.687l.686 1.817.687-1.816h.686v2.679h-.601zM23.383 32.715l-2.574-6.913h-13.9l-2.575 6.913H.645L11.8 3.767h4.032l11.07 28.948h-3.519zm-9.696-24.8L8.454 22.26H19.35L13.687 7.915zm15.531 24.8h3.604V3.768h-3.604v28.947zm9.009 0h3.604v-20.48h-3.604v20.48zm7.036-27.133v-.346c-2.745-.086-4.977-2.333-5.062-5.098h-.515c-.086 2.765-2.317 5.012-5.062 5.098v.346c2.745.086 4.976 2.333 5.062 5.098h.515c.085-2.765 2.317-5.012 5.062-5.098z" fill="#222"></path>
  </symbol>
  <symbol fill="none" xmlns="http://www.w3.org/2000/svg" viewBox="0 0 170 57" id="allegro">
    <path fill-rule="evenodd" clip-rule="evenodd" d="M62.223 24.909c.168-3.753 3.34-6.66 7.082-6.49l.101.005c3.326-.204 6.187 2.334 6.39 5.668a6.02 6.02 0 01-.005.817H62.223zm7.172-12.37c-8.98 0-12.912 6.038-14.168 11.146a17.234 17.234 0 00-.516 4.213 16.042 16.042 0 002.887 9.414 15.396 15.396 0 0012.149 5.966c4.848.177 8.087-.647 10.564-2.058.495-.322.73-.923.587-1.495v-3.92c0-.799-.481-1.176-1.174-.694a15.281 15.281 0 01-9.766 2.354c-4.038-.053-7.402-3.118-7.84-7.143h19.953c.45 0 .816-.362.823-.813.351-5.472-1.234-16.97-13.499-16.97zm-48.36 25.373h-8.768a5.409 5.409 0 01-3.11-1.095 3.46 3.46 0 01-1.467-2.894c0-1.59 1.068-4.766 6.408-4.766h6.938v8.755h-.001zm6.515-13.05c0-4.013-.891-7.062-2.818-9.168-1.924-2.106-5.798-3.154-9.39-3.154a20.315 20.315 0 00-10.27 2.742.646.646 0 00-.316.565l.27 4.425a.785.785 0 001.29.459c4.402-2.718 9.684-3.225 12.372-1.86a4.712 4.712 0 012.348 4.25v.646h-7.337C10.542 23.767.87 24.944.87 33.852v.095a8.649 8.649 0 003.134 7.154 12.369 12.369 0 007.84 2.248h14.85a.87.87 0 00.868-.87V24.826l-.012.035v.001zm73.736 12.533c-3.627 0-6.245-2.66-7.348-5.967a10.946 10.946 0 010-7.061c1.103-3.307 3.721-5.966 7.348-5.966 8.11 0 8.38 8.296 8.38 9.497 0 1.2-.27 9.497-8.38 9.497zm15.036-9.486a15.813 15.813 0 00-2.887-9.414c-5.206-6.727-14.865-7.95-21.575-2.73a15.43 15.43 0 00-2.723 2.73 16.596 16.596 0 000 18.829 14.935 14.935 0 0012.15 5.967c3.077.01 6.09-.9 8.65-2.613v3.719c0 5.048-4.402 5.966-7.22 6.142a32.977 32.977 0 01-5.798-.317c-.774-.118-1.314 0-1.314.835v4.472c.02.423.376.75.797.73h.001c6.538.565 10.94.447 14.25-1.447a10.803 10.803 0 004.824-6.155c.585-1.994.866-4.065.833-6.143V27.909h.012zm21.61-13.64V17.8a.92.92 0 01-1.175 1.001c-5.705-1.177-9.214 1.365-9.214 6.65v17.063c0 .48-.39.87-.868.87h-5.048a.869.869 0 01-.868-.87V25.085a11.78 11.78 0 013.72-8.814 13.083 13.083 0 019.238-3.743c1.182.003 2.36.113 3.521.33.599.2.693.553.693 1.46v-.048l.001-.001zM38.958 42.515c0 .48-.39.87-.869.87h-5.047a.87.87 0 01-.869-.87V.915a.87.87 0 01.857-.872h5.047c.48 0 .87.39.87.872v41.6h.011zm11.855 0c0 .48-.39.87-.868.87h-5.048a.87.87 0 01-.869-.87V.915a.87.87 0 01.869-.872h5.048a.87.87 0 01.868.872v41.6zm110.628-11.062c-1.104 3.307-3.722 5.883-7.348 5.966-3.628.083-6.245-2.66-7.337-5.966-.78-2.29-.78-4.773 0-7.061 1.104-3.307 3.721-5.885 7.337-5.967 3.615-.082 6.244 2.66 7.348 5.967a10.963 10.963 0 010 7.049v.012zm4.812-12.946c-5.206-6.726-14.865-7.948-21.575-2.73a15.492 15.492 0 00-2.722 2.73 16.024 16.024 0 00-2.888 9.415 16.017 16.017 0 002.888 9.414c5.206 6.727 14.865 7.95 21.574 2.73a15.33 15.33 0 002.723-2.73 16.04 16.04 0 002.888-9.414 16.048 16.048 0 00-2.888-9.415z" fill="#222"></path>
  </symbol>
  <symbol fill="none" xmlns="http://www.w3.org/2000/svg" viewBox="0 0 191 32" id="booking">
    <path fill-rule="evenodd" clip-rule="evenodd" d="M109.349 7.115c2.327 0 3.761.82 4.561 1.51l.228.199.137-.266c.363-.683 1.086-1.057 2.025-1.057h2.304l-.02 15.904c0 6.063-4.924 8.219-9.142 8.219-2.048 0-4.315-.552-6.055-1.473l-.346-.183.556-1.42.393-.97c.427-1.052 1.041-1.313 2.093-.997.805.291 2.008.613 3.33.613 2.72 0 4.223-1.279 4.223-3.593v-.482l-.383.286c-.99.747-2.234 1.113-3.811 1.113-4.617 0-7.842-3.605-7.842-8.766 0-5.165 3.118-8.637 7.749-8.637zm27.21.095c2.555 0 6.357 1.083 6.357 4.065v2.26l-2.592-.004c-.217 0-1.32-.064-1.685-1.277l-.022-.089c-.16-.535-1.17-.854-2.058-.854-2.738 0-4.65 2.016-4.65 4.896 0 3.337 2.465 4.834 4.909 4.834 2.517 0 4.463-1.891 4.702-2.135l.024-.025.27-.287 2.053 3.397-.136.168c-.024.029-2.577 3.11-7.273 3.11-5.412 0-9.335-3.794-9.335-9.027 0-5.23 3.965-9.032 9.436-9.032zM27.742 7.193c5.273 0 9.1 3.777 9.1 8.98 0 5.202-3.827 8.98-9.1 8.98-5.254 0-9.066-3.778-9.066-8.98 0-5.203 3.812-8.98 9.066-8.98zm19.453 0c5.267 0 9.102 3.777 9.102 8.98 0 5.202-3.835 8.98-9.102 8.98-5.259 0-9.071-3.778-9.071-8.98 0-5.203 3.812-8.98 9.07-8.98h.001zm106.16 0c5.266 0 9.1 3.777 9.1 8.98 0 5.202-3.834 8.98-9.1 8.98-5.258 0-9.07-3.778-9.07-8.98 0-5.203 3.812-8.98 9.07-8.98zm-29.93 12.12a2.887 2.887 0 012.886 2.887 2.888 2.888 0 01-2.887 2.885 2.883 2.883 0 01-2.877-2.885 2.884 2.884 0 012.877-2.888l.001.001zM78.003 7.547c1.756 0 2.606.86 2.606 2.632l-.01 14.698h-.01v.006h-1.16l-1.167.004c-.031 0-.058-.004-.09-.004h-2.505v-3.93h.002l-.014-13.406h2.349-.001zM60.42.878c1.37 0 2.64.277 2.64 2.312v10.172h.795c.596 0 .994-.147 1.19-.435l3.484-5.38h5.628l-4.637 6.878c-.237.349-.484.65-.724.903l-.168.16.16.168c.248.258.483.584.687.967l1.888 3.566 2.845 4.7h-3.823c-1.44 0-2.204-.242-2.974-1.647l-2.75-5.183c-.178-.307-.565-.373-1.133-.373h-.468v7.202h-4.985L58.069.879h2.35l.001-.001zm33.263 6.275c4.054 0 6.196 2.317 6.196 6.7l.008 11.029h-2.358c-1.8 0-2.633-.842-2.633-2.637v-7.552c0-2.105-.603-2.92-2.15-2.92-1.921 0-3.46 1.164-4.01 3.037-.208.618-.309 1.296-.309 2.079v7.993h-4.952L83.461 7.54h2.234c1.352 0 2.25.561 2.515 1.58l.108.414.303-.304c.906-.95 2.525-2.077 5.062-2.077zm90.895.056l.232.004c3.671.09 5.536 2.324 5.536 6.639l-.005 11.025h-2.226c-1.748 0-2.526-.778-2.526-2.524v-7.714c0-2.211-.54-3.035-1.995-3.035-2.013 0-3.31 1.803-3.692 3.564-.187.624-.266 1.25-.266 2.085v7.624h-4.764V14.639c0-1.918-.628-2.91-1.913-3.032-2.086-.198-3.329 1.783-3.78 3.626a8.57 8.57 0 00-.25 2.02v7.624H164.2l.02-17.272h2.081c1.298 0 2.156.528 2.416 1.49l.182.667.469-.508c.718-.76 2.26-2.044 4.563-2.044 2.196 0 3.774.848 4.691 2.517l.281.508.359-.454a6.836 6.836 0 015.318-2.57l-.002-.002zM3.681.888h5.18c4.54 0 7.472 2.437 7.472 6.21 0 2.466-1.24 3.893-1.98 4.528l-.636.543.729.41c1.769.993 2.82 2.947 2.82 5.235 0 4.244-3.255 6.986-8.302 6.986l-5.923.001-.01-.001H.654V3.38A2.522 2.522 0 013.092.888h.589zm24.061 10.507c-2.484 0-4.208 1.967-4.208 4.779 0 2.81 1.724 4.78 4.208 4.78 2.533 0 4.242-1.924 4.242-4.78 0-2.812-1.744-4.78-4.242-4.78v.001zm19.453 0c-2.483 0-4.211 1.967-4.211 4.779 0 2.81 1.728 4.78 4.21 4.78 2.534 0 4.243-1.924 4.243-4.78 0-2.812-1.75-4.78-4.242-4.78v.001zm106.16 0c-2.483 0-4.213 1.967-4.213 4.779 0 2.81 1.73 4.78 4.212 4.78 2.533 0 4.245-1.924 4.245-4.78 0-2.812-1.752-4.78-4.245-4.78l.001.001zM9.295 14.253H6.548c-.883.124-1.283.657-1.283 1.686v4.811l4.031.005c1.995-.001 3.232-1.217 3.232-3.267 0-2-1.27-3.235-3.232-3.235h-.001zm100.764-2.778c-3.163 0-3.41 3.175-3.41 4.148 0 2.208.964 4.566 3.67 4.566 1.555 0 3.409-.763 3.409-4.403 0-3.859-2.095-4.31-3.669-4.31v-.001zM8.829 4.808H6.766c-1.03.068-1.501.594-1.501 1.703v4.043h3.628c2.039 0 2.765-1.573 2.765-2.921 0-1.767-1.06-2.825-2.83-2.825h.001zM77.937.126a2.887 2.887 0 012.888 2.886 2.887 2.887 0 01-2.888 2.883 2.881 2.881 0 01-2.878-2.883A2.882 2.882 0 0177.937.126z" fill="#222"></path>
  </symbol>
  <symbol fill="none" xmlns="http://www.w3.org/2000/svg" viewBox="0 0 185 30" id="groupon">
    <path fill-rule="evenodd" clip-rule="evenodd" d="M92.116 29.316c6.202 0 10.334-4.009 10.334-10.774V1.235h-6.784V18.27c0 3.15-1.135 4.71-3.514 4.71-2.296 0-3.28-1.597-3.28-4.71V1.235h-6.82v17.307c.01 6.915 3.786 10.774 10.062 10.774h.002zm20.405-15.325h-1.246v-6.57h1.79c3.007 0 4.45.935 4.45 3.225-.01 2.486-1.64 3.345-4.994 3.345zm8.104-11.242c-1.874-1.318-4.094-1.514-7.017-1.514h-9.2v27.651h6.782v-8.905h1.95c2.885 0 5.068-.197 6.83-1.243 2.763-1.672 4.403-4.625 4.403-8.205 0-3.467-1.283-6.074-3.748-7.784zm41.261 10.737l10.334 15.401h5.959V1.235h-6.773v15.363L161.221 1.235h-6.118v27.652h6.783V13.486zM66.07 22.55c-3.823 0-7.29-3.345-7.29-7.7 0-4.046 3.233-7.269 7.374-7.269 3.898 0 7.14 3.223 7.14 7.27-.01 4.504-3.242 7.7-7.224 7.7v-.001zm9.94-17.736C73.32 2.17 69.817.731 66.107.731c-3.935 0-7.373 1.364-10.1 4.046-2.726 2.681-4.216 6.186-4.216 9.998 0 4.084 1.33 7.504 3.936 10.271 2.725 2.878 6.239 4.354 10.333 4.354 3.86 0 7.524-1.513 10.212-4.316 2.615-2.683 4.02-6.225 4.02-10.186.01-3.786-1.471-7.327-4.282-10.084zm63.53 17.736c-3.822 0-7.289-3.345-7.289-7.7 0-4.046 3.242-7.269 7.373-7.269 3.898 0 7.14 3.223 7.14 7.27-.01 4.504-3.251 7.7-7.224 7.7v-.001zm9.94-17.736c-2.688-2.644-6.202-4.083-9.902-4.083-3.945 0-7.373 1.364-10.1 4.046-2.727 2.681-4.216 6.186-4.216 9.998 0 4.084 1.33 7.504 3.934 10.271 2.737 2.878 6.24 4.354 10.335 4.354 3.86 0 7.523-1.513 10.212-4.316 2.614-2.683 4.02-6.225 4.02-10.186.01-3.786-1.472-7.327-4.282-10.084h-.001zM4.581 25.036c2.726 2.878 6.203 4.393 10.297 4.393 4.72 0 9.163-2.337 11.814-6.187 1.602-2.337 2.38-4.981 2.38-8.092 0-.58-.038-1.206-.075-1.833H13.2v5.523h7.917c-1.37 2.412-3.664 3.738-6.24 3.738-3.823 0-7.252-3.382-7.252-7.784 0-3.971 3.195-7.27 7.252-7.27 2.183 0 3.972.898 5.696 2.683h7.72C26.074 4.291 20.884.674 14.962.674c-3.935 0-7.365 1.402-10.1 4.084C2.136 7.441.656 10.945.656 14.757c-.01 4.093 1.31 7.513 3.925 10.28v-.001zm34.31-11.045h-1.322v-6.57h1.874c2.998 0 4.44.935 4.44 3.225 0 2.486-1.64 3.345-4.992 3.345zm5.574 5.401c3.935-1.093 6.278-4.43 6.278-8.905 0-3.42-1.285-6.028-3.748-7.738-1.874-1.318-4.094-1.514-7.018-1.514h-9.2v27.651h6.783v-8.905l5.303 8.905h8.385l-6.783-9.494zM180.99 1.375a1.74 1.74 0 011.274-.532c.496 0 .927.178 1.274.532.347.347.525.776.525 1.27 0 .497-.178.927-.525 1.282a1.71 1.71 0 01-1.274.532c-.497 0-.928-.178-1.274-.532a1.757 1.757 0 01-.525-1.281c0-.495.169-.915.525-1.27v-.001zm1.264 3.365c.582 0 1.078-.206 1.48-.617.413-.411.61-.907.61-1.477 0-.58-.206-1.065-.61-1.468a2.023 2.023 0 00-1.48-.606c-.571 0-1.068.205-1.47.606a1.99 1.99 0 00-.61 1.468c0 .579.207 1.075.61 1.477.402.41.89.617 1.47.617z" fill="#222"></path>
    <path fill-rule="evenodd" clip-rule="evenodd" d="M182.573 2.543c-.084.038-.216.048-.384.048h-.365V1.76h.346c.225 0 .385.028.487.084.103.056.15.168.15.336 0 .187-.084.31-.234.364zm.609 1.206a.3.3 0 01-.019-.12c0-.057-.01-.122-.01-.169v-.17a.625.625 0 00-.121-.355.565.565 0 00-.393-.224.706.706 0 00.328-.112c.15-.093.225-.252.225-.448 0-.29-.122-.486-.357-.579-.131-.057-.336-.085-.628-.085h-.805v2.29h.403V2.88h.318c.216 0 .366.028.45.075.15.084.216.262.216.523v.178l.009.074v.03c0 .008 0 .017.01.017h.374V3.75z" fill="#222"></path>
  </symbol>
  <symbol fill="none" xmlns="http://www.w3.org/2000/svg" viewBox="0 0 40 41" id="in">
    <path stroke="#000" stroke-width="2" d="M1 1.906h38v38H1z"></path>
    <g clip-path="url(#clip0)">
      <path d="M15.03 28.781h-3.733V18.266h3.733v10.515zm-1.868-11.95c-1.194 0-2.162-.864-2.162-1.908s.968-1.892 2.162-1.892c1.193 0 2.161.848 2.161 1.892s-.968 1.909-2.161 1.909zM29 28.782h-3.725v-5.118c0-1.22-.028-2.785-1.94-2.785-1.94 0-2.238 1.325-2.238 2.697v5.206h-3.729V18.266h3.58V19.7H21c.499-.826 1.716-1.698 3.532-1.698 3.777 0 4.472 2.177 4.472 5.003v5.776H29z" fill="#000"></path>
    </g>
    <defs>
      <clipPath id="clip0">
        <path fill="#fff" transform="translate(11 11.906)" d="M0 0h18v18H0z"></path>
      </clipPath>
    </defs>
  </symbol>
  <symbol fill="none" xmlns="http://www.w3.org/2000/svg" viewBox="0 0 70 70" id="lidl">
    <path fill-rule="evenodd" clip-rule="evenodd" d="M.174 69.916h69.65V.084H.174v69.832z" fill="#222"></path>
    <path fill-rule="evenodd" clip-rule="evenodd" d="M35 4.027C17.941 4.027 4.105 17.9 4.105 35.01c0 17.092 13.836 30.966 30.893 30.966 17.056 0 30.893-13.874 30.893-30.966.001-17.11-13.836-30.983-30.892-30.983" fill="#fff"></path>
    <path fill-rule="evenodd" clip-rule="evenodd" d="M33.079 35.869l-5.449-5.462-6.291 6.312v2.12l1.584-1.596 4.387 4.409-1.618 1.624 1.053 1.066 8.776-8.819v-2.109l-2.442 2.455zM7.617 29.253h9.715v2.102h-1.62v6.795l5.627-3.14v5.756H7.617v-2.111h1.629v-7.3H7.617v-2.102zm40.962 0v2.102h1.627v7.3h-1.627v2.111h13.73V35.01l-5.637 3.14v-6.795h1.629v-2.102h-9.722zm-21.755-6.545c1.91 0 3.46 1.544 3.46 3.458 0 1.916-1.55 3.47-3.46 3.47a3.465 3.465 0 01-3.459-3.47 3.456 3.456 0 013.46-3.458" fill="#222"></path>
    <path fill-rule="evenodd" clip-rule="evenodd" d="M43.164 29.253h-9.262v2.102h1.62v7.3h-1.62v2.11h9.262c6.848 0 6.918-11.512 0-11.512z" fill="#222"></path>
    <path fill-rule="evenodd" clip-rule="evenodd" d="M41.863 37.173h-.46v-4.345h.39c2.026 0 2.026 4.355.07 4.345z" fill="#fff"></path>
  </symbol>
</svg>